# xmcd
#
# Track frame offsets:
#	150
#	11945
#	28725
#	46385
#	59792
#	76912
#	89435
#	109029
#	118460
#	133855
#	147542
#	159922
#	173715
#	186859
#	205052
#	221140
#	235540
#	249447
#	263705
#	280562
#
# Disc length: 3886 seconds
#
# Revision: 0
# Processed by: cddbd v1.5.1PL0 Copyright (c) Steve Scherf et al.
# Submitted via: audiograbber 1.83.01
#
DISCID=260f2c14
DTITLE=Carreiro e Carreirinho - Os Maiores Violeiros Do Brasil
DYEAR=2005
DGENRE=Modas De Viola
TTITLE0=Rei Do Gado
TTITLE1=Rei Do Café
TTITLE2=Ferreirinha
TTITLE3=Irmão Do Ferreirinha
TTITLE4=Companheiro Do Ferreirinha
TTITLE5=Filha Do Ferreirinha
TTITLE6=Campeão Do Espaço
TTITLE7=Clarineta
TTITLE8=Minha Vida
TTITLE9=Mandioqueiro
TTITLE10=Bombardeio
TTITLE11=Mulato Gordo
TTITLE12=Fandango Mineiro
TTITLE13=Terra Roxa
TTITLE14=Derrota Do Boi Palácio
TTITLE15=Gato De Três Cores
TTITLE16=Bandeirante Fernão Dias
TTITLE17=Rancho Da Felicidade
TTITLE18=Morte Do Carreiro
TTITLE19=Missão Cumprida
EXTD=50 anos de pioneirismo da verdadeira Moda de Viola
EXTT0=
EXTT1=
EXTT2=
EXTT3=
EXTT4=
EXTT5=
EXTT6=
EXTT7=
EXTT8=
EXTT9=
EXTT10=
EXTT11=
EXTT12=
EXTT13=
EXTT14=
EXTT15=
EXTT16=
EXTT17=
EXTT18=
EXTT19=
PLAYORDER=
